<svg id="Layer_1" data-name="Layer 1" xmlns="http://www.w3.org/2000/svg" viewBox="0 0 245.06 103.21"><defs><style>.cls-1{fill:#010101;}.cls-2{fill:#e82e21;}.cls-3{fill:#231f20;}</style></defs><title>logo</title><g id="New_Symbol" data-name="New Symbol"><rect class="cls-1" x="2.63" y="11.88" width="242.42" height="2.12"/><rect class="cls-1" x="2.63" y="16.09" width="61.42" height="2.12"/><polygon class="cls-1" points="0 0.19 0 2.36 3.01 2.36 3.01 9.83 5.42 9.83 5.42 2.36 8.43 2.36 8.43 0.19 0 0.19"/><polygon class="cls-1" points="17.87 0.19 17.87 3.87 11.55 3.87 11.55 0.19 9.14 0.19 9.14 9.83 11.55 9.83 11.55 6.15 17.87 6.15 17.87 9.83 20.28 9.83 20.28 0.19 17.87 0.19"/><polygon class="cls-1" points="21.39 0.19 21.39 9.83 28.24 9.83 28.24 7.66 23.8 7.66 23.8 6.03 27.4 6.03 27.4 3.99 23.8 3.99 23.8 2.36 28.24 2.36 28.24 0.19 21.39 0.19"/><polygon class="cls-1" points="40.73 0.19 40.73 6.21 40.37 6.21 34.76 0.19 31.94 0.19 31.94 9.83 34.35 9.83 34.35 3.66 34.71 3.66 40.42 9.83 43.14 9.83 43.14 0.19 40.73 0.19"/><polygon class="cls-1" points="44.25 0.19 44.25 9.83 51.1 9.83 51.1 7.66 46.66 7.66 46.66 6.03 50.26 6.03 50.26 3.99 46.66 3.99 46.66 2.36 51.1 2.36 51.1 0.19 44.25 0.19"/><polygon class="cls-1" points="67.64 0.19 65.83 7.87 65.27 7.87 63.09 0.19 58.56 0.19 56.66 7.87 56.09 7.87 54.01 0.19 51.32 0.19 54.23 9.83 58.51 9.83 60.53 2.16 61.21 2.16 63.43 9.83 67.71 9.83 70.38 0.19 67.64 0.19"/><path class="cls-1" d="M73.13,2.94c0-2,1.63-3.13,3.72-3.13a7.4,7.4,0,0,1,3.31.75l-0.46,2a6.26,6.26,0,0,0-2.94-.73c-0.75,0-1.25.29-1.25,0.8,0,1.56,4.94.69,4.94,3.93,0,1.72-1.23,3.24-3.79,3.24a8.09,8.09,0,0,1-3.34-.61L73.42,7a7.53,7.53,0,0,0,3.31.76c1.06,0,1.33-.37,1.33-0.82,0-1.45-4.93-.6-4.93-4" transform="translate(0 0.19)"/><path class="cls-1" d="M88.44,9.5a6.56,6.56,0,0,1-2.51.33,5,5,0,0,1-5-5,5,5,0,0,1,5.24-5A7.87,7.87,0,0,1,88.6.1L88.37,2.29A6.2,6.2,0,0,0,86.23,2,2.59,2.59,0,0,0,83.4,4.8a2.66,2.66,0,0,0,2.89,2.82,5.41,5.41,0,0,0,2.16-.35V9.5Z" transform="translate(0 0.19)"/><polygon class="cls-1" points="98.28 6.15 91.96 6.15 91.96 9.83 89.55 9.83 89.55 0.19 91.96 0.19 91.96 3.87 98.28 3.87 98.28 0.19 100.69 0.19 100.69 9.83 98.28 9.83 98.28 6.15"/><path class="cls-1" d="M107-.19c3.31,0,5.7,1.71,5.7,5S110.15,9.83,107,9.83s-5.73-1.7-5.73-5c0-3.16,2.35-5,5.75-5m0,8c1.89,0,3.25-1,3.25-3.08,0-1.93-1.36-2.89-3.24-2.89s-3.24.94-3.24,3,1.36,3,3.23,3" transform="translate(0 0.19)"/><path class="cls-1" d="M118.89-.19c3.31,0,5.7,1.71,5.7,5S122,9.83,118.88,9.83s-5.73-1.7-5.73-5c0-3.16,2.35-5,5.75-5m0,8c1.89,0,3.25-1,3.25-3.08,0-1.93-1.36-2.89-3.24-2.89s-3.24.94-3.24,3,1.36,3,3.23,3" transform="translate(0 0.19)"/><polygon class="cls-1" points="125.25 0.19 127.66 0.19 127.66 7.54 135.12 7.54 135.12 9.83 125.25 9.83 125.25 0.19"/><polygon class="cls-2" points="66.13 16.11 76.65 16.11 76.65 48.19 95.52 48.19 95.52 58.17 66.13 58.17 66.13 16.11"/><path class="cls-2" d="M125.81,49.94H110.4l-2.89,8H96.31l16.88-42.06H124L139.85,58H128.44Zm-12.36-8.57h9.62l-4.52-14Z" transform="translate(0 0.19)"/><polygon class="cls-2" points="154.88 28.68 152.26 28.68 152.26 58.17 141.74 58.17 141.74 16.11 156.52 16.11 184.33 42.66 186.96 42.66 186.96 16.11 197.48 16.11 197.48 58.17 184.75 58.17 154.88 28.68"/><path class="cls-2" d="M224.82,33.27h19.93V55.93c-3.26,1.58-10,2.89-16.72,2.89-16.46,0-26.71-8.2-26.71-21.82,0-12.83,9.62-21.93,27.24-21.93,6.89,0,13.15,1.1,16.51,2.42l-0.84,9.15c-4.26-1.58-8.94-2.31-15.77-2.31-11.15,0-16.3,4.42-16.3,12.41,0,8.31,5.31,12.88,16,12.88,1.89,0,4-.1,6.26-0.31v-7.1h-9.62V33.27Z" transform="translate(0 0.19)"/><path class="cls-3" d="M83,81.2a20,20,0,0,1-5.74.74c-6.71,0-10-3-10-7.32s3.42-7.27,10.29-7.27a30.92,30.92,0,0,1,5.66.49l-0.33,3.09a31.89,31.89,0,0,0-5.48-.54c-4.69,0-6.52,1.63-6.52,4.16s2,4.32,6.3,4.32a25.28,25.28,0,0,0,5.8-.69v3Z" transform="translate(0 0.19)"/><path class="cls-3" d="M91.43,67.33c4.13,0,7.17,2.49,7.17,7.24,0,4.93-3.32,7.38-7.18,7.38s-7.22-2.48-7.22-7.36C84.2,70,87.18,67.33,91.43,67.33ZM91.38,79c2.05,0,3.6-1.41,3.6-4.5,0-2.81-1.55-4.22-3.58-4.22s-3.58,1.37-3.58,4.32S89.36,79,91.38,79Z" transform="translate(0 0.19)"/><path class="cls-3" d="M116.2,67.61v7.31c0,3.88-3.23,7-7.82,7s-7.9-2.3-7.9-7V67.61H104v7.31c0,2.51,1.65,3.81,4.39,3.81s4.3-1.77,4.3-3.81V67.61h3.51Z" transform="translate(0 0.19)"/><path class="cls-3" d="M118.89,67.61h6.66a4.48,4.48,0,0,1,4.71,4.79,4.84,4.84,0,0,1-2.46,4.37l2.46,4.88h-4l-1.95-4.3H122.4v4.3h-3.51v-14Zm3.51,3.16v3.6h2.28a1.81,1.81,0,0,0,1.93-1.88,1.78,1.78,0,0,0-1.93-1.72H122.4Z" transform="translate(0 0.19)"/><path class="cls-3" d="M131.94,71.89c0-3,3.25-4.57,7.71-4.57,3,0,6,.46,7.11,1.09l-0.67,3c-1.18-.7-4.16-1.07-6.57-1.07-3,0-4.11.42-4.11,1.16,0,2.58,11.77.11,11.77,5.73,0,2.51-2.49,4.72-7.82,4.72-2.48,0-5.69-.21-7.15-0.9l0.14-3.21a18.3,18.3,0,0,0,7.11,1.11c3.06,0,4.21-.54,4.21-1.2C143.69,75.34,131.94,77.71,131.94,71.89Z" transform="translate(0 0.19)"/><path class="cls-3" d="M149.28,81.66v-14h12.28v3.16h-8.76v2.37h7.53v3h-7.53V78.5h8.76v3.16H149.28Z" transform="translate(0 0.19)"/><path class="cls-3" d="M163.07,71.89c0-3,3.25-4.57,7.71-4.57,3,0,6,.46,7.11,1.09l-0.67,3c-1.18-.7-4.16-1.07-6.57-1.07-3,0-4.11.42-4.11,1.16,0,2.58,11.77.11,11.77,5.73,0,2.51-2.49,4.72-7.82,4.72-2.48,0-5.69-.21-7.15-0.9l0.14-3.21a18.3,18.3,0,0,0,7.11,1.11c3.06,0,4.21-.54,4.21-1.2C174.82,75.34,163.07,77.71,163.07,71.89Z" transform="translate(0 0.19)"/><path class="cls-3" d="M75.18,102.74H71.56L66.28,88.69h3.86l3.3,9.94,3.72-9.94h3.65Z" transform="translate(0 0.19)"/><path class="cls-3" d="M82.05,88.69h3.51v14.05H82.05V88.69Z" transform="translate(0 0.19)"/><path class="cls-3" d="M87.73,93c0-3,2.81-4.57,6.57-4.57a14.28,14.28,0,0,1,6,1.09l-0.67,3a12.45,12.45,0,0,0-5.43-1.07c-2,0-3,.42-3,1.16,0,2.42,9.48.54,9.48,5.73,0,2.51-2.14,4.72-6.67,4.72a16.19,16.19,0,0,1-6-.9l0.14-3.21a14.33,14.33,0,0,0,6,1.11c2.3,0,3.07-.54,3.07-1.19C97.19,96.56,87.73,98.37,87.73,93Z" transform="translate(0 0.19)"/><path class="cls-3" d="M120.66,88.69V96c0,3.88-3.67,7-9,7s-9.13-2.3-9.13-7V88.69h3.51V96c0,2.51,2.18,3.9,5.62,3.9,3.62,0,5.44-1.86,5.44-3.9V88.69h3.51Z" transform="translate(0 0.19)"/><path class="cls-3" d="M130.94,100.05h-5.15l-1,2.69h-3.74l5.64-14.05h3.62l5.29,14.05h-3.81Zm-4.13-2.86H130l-1.51-4.69Z" transform="translate(0 0.19)"/><path class="cls-3" d="M137.07,88.69h3.51V99.4h8.59v3.34h-12.1V88.69Z" transform="translate(0 0.19)"/><path class="cls-3" d="M150.92,88.69h3.51v14.05h-3.51V88.69Z" transform="translate(0 0.19)"/><path class="cls-3" d="M156.62,102.74V99.95l9.85-8.1h-9.85V88.69h15.56V90.8l-10.29,8.78h10.34v3.16H156.62Z" transform="translate(0 0.19)"/><path class="cls-3" d="M184.71,100h-7l-1.14,2.78h-3.74l6.25-14.05h4.5l6,14.05H185.8Zm-5.78-2.86h4.67l-2.18-5.55H181.2Z" transform="translate(0 0.19)"/><path class="cls-3" d="M198.26,91.85v10.89h-3.51V91.85h-6.5V88.69h16.68v3.16h-6.67Z" transform="translate(0 0.19)"/><path class="cls-3" d="M206.52,88.69H210v14.05h-3.51V88.69Z" transform="translate(0 0.19)"/><path class="cls-3" d="M220.5,88.41c4.83,0,8.31,2.49,8.31,7.24,0,4.94-3.76,7.38-8.33,7.38s-8.36-2.48-8.36-7.36C212.12,91.06,215.54,88.41,220.5,88.41Zm-0.05,11.66c2.76,0,4.74-1.41,4.74-4.5,0-2.81-2-4.21-4.72-4.21s-4.72,1.37-4.72,4.32S217.72,100.07,220.44,100.07Z" transform="translate(0 0.19)"/><path class="cls-3" d="M234.59,94.61h-0.17v8.13H230.9V88.69h3.27l7.09,8.69h0.18V88.69h3.51v14.05h-3.69Z" transform="translate(0 0.19)"/></g></svg>